<?xml version="1.0" encoding="utf-8"?>
<svg viewBox="1.234 0.152 229.925 75.18" xmlns="http://www.w3.org/2000/svg">
  <g id="SvgjsG1013" transform="matrix(1, 0, 0, 1, 87.764076, 21.007627)">
    <path id="SvgjsPath1014" d="M19.22699991607666 1.376999710083009L19.22699991607666 17.59499971008301Q19.22699991607666 20.416999710083008 18.02849991607666 22.414499710083007Q16.82999991607666 24.41199971008301 14.662499916076658 25.440499710083007Q12.49499991607666 26.468999710083008 9.63899991607666 26.468999710083008Q6.765999916076661 26.468999710083008 4.59849991607666 25.440499710083007Q2.4309999160766598 24.41199971008301 1.2154999160766602 22.414499710083007Q-8.392333983309186e-8 20.416999710083008 -8.392333983309186e-8 17.59499971008301L-8.392333983309186e-8 1.376999710083009L5.52499991607666 1.376999710083009L5.52499991607666 17.59499971008301Q5.52499991607666 22.031999710083007 9.63899991607666 22.031999710083007Q11.64499991607666 22.031999710083007 12.67349991607666 20.96099971008301Q13.70199991607666 19.889999710083007 13.70199991607666 17.59499971008301L13.70199991607666 1.376999710083009L19.22699991607666 1.376999710083009ZM33.20099991607666 7.394999710083006Q35.95499991607666 7.394999710083006 37.47649991607666 9.060999710083006Q38.99799991607666 10.726999710083009 38.99799991607666 14.517999710083007L38.99799991607666 26.128999710083008L33.67699991607666 26.128999710083008L33.67699991607666 14.483999710083008Q33.67699991607666 12.885999710083007 33.00549991607666 12.282499710083007Q32.33399991607666 11.678999710083009 30.90599991607666 11.678999710083009Q29.01899991607666 11.678999710083009 28.08399991607666 13.208999710083008L28.08399991607666 26.128999710083008L22.79699991607666 26.128999710083008L22.79699991607666 7.7349997100830095L27.76099991607666 7.7349997100830095L27.94799991607666 9.85999971008301Q28.89999991607666 8.652999710083009 30.234499916076658 8.023999710083007Q31.568999916076663 7.394999710083006 33.20099991607666 7.394999710083006ZM48.05899991607666 26.128999710083008L42.73799991607666 26.128999710083008L42.73799991607666 0.01699971008300949L48.05899991607666 0.01699971008300949L48.05899991607666 26.128999710083008ZM51.11899991607666 16.761999710083007Q51.11899991607666 14.058999710083008 52.14749991607666 11.933999710083008Q53.17599991607666 9.808999710083008 55.15649991607666 8.601999710083007Q57.13699991607666 7.394999710083006 59.89099991607666 7.394999710083006Q62.66199991607667 7.394999710083006 64.65099991607666 8.601999710083007Q66.63999991607666 9.808999710083008 67.66849991607666 11.925499710083008Q68.69699991607666 14.041999710083008 68.69699991607666 16.761999710083007L68.69699991607666 17.11899971008301Q68.69699991607666 19.821999710083006 67.66849991607666 21.946999710083006Q66.63999991607666 24.07199971008301 64.65949991607665 25.27049971008301Q62.67899991607666 26.468999710083008 59.92499991607666 26.468999710083008Q57.15399991607666 26.468999710083008 55.16499991607666 25.27049971008301Q53.17599991607666 24.07199971008301 52.14749991607666 21.955499710083007Q51.11899991607666 19.83899971008301 51.11899991607666 17.11899971008301L51.11899991607666 16.761999710083007ZM56.42299991607666 17.11899971008301Q56.42299991607666 19.447999710083007 57.24749991607666 20.816499710083008Q58.07199991607666 22.18499971008301 59.92499991607666 22.18499971008301Q61.74399991607666 22.18499971008301 62.56849991607666 20.80799971008301Q63.39299991607666 19.430999710083007 63.39299991607666 17.11899971008301L63.39299991607666 16.761999710083007Q63.39299991607666 14.483999710083008 62.56849991607666 13.081499710083008Q61.74399991607666 11.678999710083009 59.89099991607666 11.678999710083009Q58.07199991607666 11.678999710083009 57.24749991607666 13.081499710083008Q56.42299991607666 14.483999710083008 56.42299991607666 16.761999710083007L56.42299991607666 17.11899971008301ZM82.02499991607667 19.634999710083008L87.00599991607666 19.634999710083008Q87.00599991607666 21.62399971008301 85.98599991607666 23.179499710083007Q84.96599991607665 24.73499971008301 83.21499991607666 25.601999710083007Q81.46399991607666 26.468999710083008 79.30499991607665 26.468999710083008Q76.53399991607667 26.468999710083008 74.60449991607666 25.261999710083007Q72.67499991607666 24.05499971008301 71.71449991607666 21.955499710083007Q70.75399991607667 19.855999710083008 70.75399991607667 17.15299971008301L70.75399991607667 16.727999710083008Q70.75399991607667 14.024999710083009 71.71449991607666 11.916999710083008Q72.67499991607666 9.808999710083008 74.59599991607666 8.601999710083007Q76.51699991607666 7.394999710083006 79.28799991607666 7.394999710083006Q81.56599991607666 7.394999710083006 83.30849991607666 8.270499710083008Q85.05099991607666 9.145999710083007 86.02849991607665 10.803499710083008Q87.00599991607666 12.460999710083009 87.00599991607666 14.721999710083008L82.02499991607667 14.721999710083008Q82.00799991607666 13.378999710083008 81.26849991607666 12.528999710083008Q80.52899991607666 11.678999710083009 79.16899991607666 11.678999710083009Q77.36699991607667 11.678999710083009 76.71249991607667 13.030499710083008Q76.05799991607665 14.381999710083008 76.05799991607665 16.727999710083008L76.05799991607665 17.15299971008301Q76.05799991607665 19.549999710083007 76.71249991607667 20.86749971008301Q77.36699991607667 22.18499971008301 79.20299991607666 22.18499971008301Q80.47799991607666 22.18499971008301 81.24299991607666 21.496499710083008Q82.00799991607666 20.80799971008301 82.02499991607667 19.634999710083008ZM101.03099991607667 26.128999710083008L96.66199991607667 19.005999710083007L94.96199991607666 20.688999710083007L94.96199991607666 26.128999710083008L89.65799991607666 26.128999710083008L89.65799991607666 -2.8991699352332034e-7L94.96199991607666 -2.8991699352332034e-7L94.96199991607666 14.160999710083008L95.72699991607666 13.157999710083008L100.24899991607666 7.7349997100830095L106.60699991607666 7.7349997100830095L100.07899991607665 15.367999710083009L107.11699991607667 26.128999710083008L101.03099991607667 26.128999710083008ZM124.77999991607666 16.404999710083008L124.77999991607666 18.665999710083007L113.23699991607666 18.665999710083007Q113.54299991607667 20.29799971008301 114.64799991607666 21.24149971008301Q115.75299991607666 22.18499971008301 117.46999991607666 22.18499971008301Q118.79599991607667 22.18499971008301 119.91799991607667 21.708999710083006Q121.03999991607667 21.232999710083007 121.83899991607666 20.229999710083007L124.33799991607665 23.20499971008301Q123.36899991607666 24.581999710083007 121.49899991607666 25.525499710083007Q119.62899991607667 26.468999710083008 117.12999991607666 26.468999710083008Q114.29099991607666 26.468999710083008 112.18299991607665 25.27049971008301Q110.07499991607666 24.07199971008301 108.95299991607666 22.031999710083007Q107.83099991607666 19.991999710083007 107.83099991607666 17.543999710083007L107.83099991607666 16.897999710083006Q107.83099991607666 14.160999710083008 108.86799991607666 12.010499710083009Q109.90499991607666 9.85999971008301 111.86849991607666 8.627499710083008Q113.83199991607665 7.394999710083006 116.55199991607665 7.394999710083006Q119.15299991607667 7.394999710083006 121.00599991607666 8.491499710083009Q122.85899991607666 9.587999710083007 123.81949991607667 11.619499710083009Q124.77999991607666 13.650999710083008 124.77999991607666 16.404999710083008ZM119.57799991607666 15.146999710083008L119.57799991607666 14.721999710083008Q119.57799991607666 13.293999710083007 118.80449991607667 12.486499710083008Q118.03099991607667 11.678999710083009 116.51799991607666 11.678999710083009Q113.81499991607666 11.678999710083009 113.25399991607667 15.146999710083008L119.57799991607666 15.146999710083008ZM138.07399991607667 0.01699971008300949L143.39499991607667 0.01699971008300949L143.39499991607667 26.128999710083008L138.61799991607666 26.128999710083008L138.36299991607666 24.139999710083007Q136.56099991607667 26.468999710083008 133.75599991607666 26.468999710083008Q131.51199991607666 26.468999710083008 129.89699991607665 25.27049971008301Q128.28199991607667 24.07199971008301 127.44049991607665 21.96399971008301Q126.59899991607665 19.855999710083008 126.59899991607665 17.15299971008301L126.59899991607665 16.79599971008301Q126.59899991607665 13.990999710083008 127.44049991607665 11.865999710083008Q128.28199991607667 9.740999710083006 129.89699991607665 8.567999710083008Q131.51199991607666 7.394999710083006 133.78999991607665 7.394999710083006Q136.37399991607666 7.394999710083006 138.07399991607667 9.366999710083007L138.07399991607667 0.01699971008300949ZM135.09899991607665 22.18499971008301Q136.16999991607665 22.18499971008301 136.90949991607667 21.734499710083007Q137.64899991607666 21.28399971008301 138.07399991607667 20.433999710083008L138.07399991607667 13.429999710083008Q137.24099991607665 11.678999710083009 135.13299991607667 11.678999710083009Q133.44999991607665 11.678999710083009 132.67649991607666 13.055999710083007Q131.90299991607665 14.432999710083008 131.90299991607665 16.79599971008301L131.90299991607665 17.15299971008301Q131.90299991607665 19.464999710083006 132.65099991607667 20.824999710083006Q133.39899991607666 22.18499971008301 135.09899991607665 22.18499971008301Z " fill="#000000"/>
  </g>
  <g id="SvgjsG1015" transform="matrix(1, 0, 0, 1, -42.235962, -44.757877)">
    <title>0403_cube and shapes_verti</title>
    <path id="color_1" d="M97,57l-9.31,5.38V51.62L76,44.91,43.47,63.71V77.13l9.31,5.37-9.31,5.37v13.42L76,120.09l11.62-6.71V102.63L97,108l11.62-6.72V63.71ZM83.9,64.53,76,69.08l-7.44-4.29L83.9,56ZM82,52.7,61.09,64.79,76,73.41,97,61.32l6,3.47L76,80.34,49.1,64.79,76,49.24ZM64.4,89.21v8.58L49.1,89l7.43-4.3Zm-17.18,3,20.93,12.09V87.05L47.22,75V68L74.15,83.58v31.1L47.22,99.13Zm47.86,10.39L87.65,98.3V89.21l7.43-4.29Zm3.75,0V78.43L83.9,87.05v24.17l-6,3.46V83.58L104.83,68v31.1Z" fill="#000000"/>
  </g>
</svg>