<?xml version="1.0" encoding="utf-8"?>
<svg viewBox="0.758 0.602 65.15 75.18" xmlns="http://www.w3.org/2000/svg">
  <g id="SvgjsG1015" transform="matrix(1, 0, 0, 1, -42.711823, -44.308163)">
    <title>0403_cube and shapes_verti</title>
    <path id="color_1" d="M97,57l-9.31,5.38V51.62L76,44.91,43.47,63.71V77.13l9.31,5.37-9.31,5.37v13.42L76,120.09l11.62-6.71V102.63L97,108l11.62-6.72V63.71ZM83.9,64.53,76,69.08l-7.44-4.29L83.9,56ZM82,52.7,61.09,64.79,76,73.41,97,61.32l6,3.47L76,80.34,49.1,64.79,76,49.24ZM64.4,89.21v8.58L49.1,89l7.43-4.3Zm-17.18,3,20.93,12.09V87.05L47.22,75V68L74.15,83.58v31.1L47.22,99.13Zm47.86,10.39L87.65,98.3V89.21l7.43-4.29Zm3.75,0V78.43L83.9,87.05v24.17l-6,3.46V83.58L104.83,68v31.1Z" fill="#000000"/>
  </g>
</svg>