<svg width="1" height="1" viewBox="0 0 1 1" fill="none" xmlns="http://www.w3.org/2000/svg">
<g clip-path="url(#clip0_26_2)">
<path d="M0.778736 0.160814L0.6549 0.232376V0.0892524L0.499406 0L0.0667114 0.250066V0.428571L0.190548 0.5L0.0667114 0.571429V0.749933L0.499406 1L0.653969 0.910748V0.767757L0.778736 0.839186L0.933298 0.7498V0.250066L0.778736 0.160814ZM0.604487 0.260974L0.499406 0.321495L0.400444 0.264432L0.604487 0.147513V0.260974ZM0.579215 0.103618L0.301082 0.264432L0.499406 0.37909L0.778736 0.218276L0.858544 0.264432L0.499406 0.471269L0.141598 0.264432L0.499406 0.0575951L0.579215 0.103618ZM0.34511 0.589252V0.703379L0.141598 0.586459L0.240428 0.529263L0.34511 0.589252ZM0.116592 0.629157L0.39499 0.789971V0.560521L0.116592 0.400239V0.30713L0.474799 0.514366V0.928039L0.116592 0.721202V0.629157ZM0.753197 0.767358L0.654368 0.710162V0.589252L0.753197 0.532189V0.767358ZM0.803077 0.767358V0.445863L0.604487 0.560521V0.882016L0.524679 0.928039V0.514366L0.882886 0.30713V0.720803L0.803077 0.767358Z" fill="white"/>
</g>
<defs>
<clipPath id="clip0_26_2">
<rect width="1" height="1" fill="white"/>
</clipPath>
</defs>
</svg>
